<svg viewBox="0 0 1024 768" xmlns="http://www.w3.org/2000/svg">
    <defs>
        <linearGradient x1="85.356%" y1="14.645%" x2="14.643%" y2="85.356%" id="a">
            <stop stop-color="#0054FF" offset="0%"/>
            <stop offset="100%"/>
        </linearGradient>
        <linearGradient x1="36.934%" y1="22.617%" x2="36.934%" y2="100%" id="c">
            <stop stop-color="#0054FF" offset="0%"/>
            <stop offset="100%"/>
        </linearGradient>
    </defs>
        <path d="M266.868 581.252a56.516 56.516 0 0 1-40.088 16.608c-14.508 0-29.02-5.536-40.088-16.608-22.14-22.14-22.14-58.036 0-80.176s58.036-22.14 80.176 0 22.14 58.036 0 80.176z" fill="url(#a)" />
        <path d="M566.936 767.94H.008V201.008c93.932 0 170.076 76.148 170.076 170.08 0 24.704-5.268 48.176-14.736 69.36l-25.652 57.368c-5.92 13.236-9.216 27.912-9.216 43.352 0 58.704 47.592 106.296 106.3 106.296a105.94 105.94 0 0 0 43.352-9.212L327.5 612.6c21.18-9.472 44.656-14.74 69.36-14.74 93.928 0 170.076 76.148 170.076 170.08z"  transform="translate(-1,0)" fill="url(#c)" />
</svg>
