<svg viewBox="0 0 1024 768" xmlns="http://www.w3.org/2000/svg">
    <defs>
        <linearGradient x1="85.356%" y1="14.645%" x2="14.643%" y2="85.356%" id="a">
            <stop stop-color="#0054FF" offset="0%"/>
            <stop offset="100%"/>
        </linearGradient>
        <linearGradient x1="30.665%" y1="61.163%" x2="109.151%" y2="15.85%" id="b">
            <stop stop-color="#0054FF" offset="0%"/>
            <stop offset="100%"/>
        </linearGradient>
    </defs>
        <path d="M893.944 267.712a56.512 56.512 0 0 1-40.084 16.604c-14.512 0-29.02-5.536-40.088-16.604-22.14-22.14-22.14-58.036 0-80.176 22.136-22.14 58.036-22.14 80.172 0 22.14 22.14 22.14 58.036 0 80.176z" fill="url(#a)" />
        <path d="M1023.936.852v643.704c-81.952-24.4-141.732-100.284-141.732-190.16 0-32.232 7.684-62.668 21.32-89.576l45.212-89.212c7.304-14.412 11.42-30.716 11.42-47.988 0-58.708-47.592-106.296-106.296-106.296a105.978 105.978 0 0 0-43.352 9.212l-57.368 25.652c-21.18 9.476-44.656 14.74-69.36 14.74C571.926 169.502 496.334 112.81 457.004.852h566.932z" transform="translate(1,-1)" fill="url(#b)" />
</svg>
